<svg width="59" height="49" viewBox="0 0 59 49" fill="none" xmlns="http://www.w3.org/2000/svg">
<path d="M25.9839 2.63787C27.2558 2.17207 28.6084 1.96704 29.9612 2.03501C31.314 2.10297 32.6394 2.44253 33.8582 3.03346C35.077 3.6244 36.1644 4.45461 37.0556 5.47464C37.9468 6.49468 38.6235 7.68366 39.0455 8.97075" stroke="#FF9800" stroke-width="4" stroke-miterlimit="10" stroke-linecap="round"/>
<path d="M41.4204 3.42951C43.7823 2.03859 46.6 1.64291 49.2537 2.32953C51.9073 3.01614 54.1796 4.72881 55.5705 7.09073C56.9615 9.45266 57.3571 12.2704 56.6705 14.924C55.9838 17.5777 54.2712 19.8499 51.9092 21.2408C50.2875 22.1806 48.4399 22.6596 46.5658 22.6262H12.5265C10.0979 22.7117 7.71988 21.9181 5.82939 20.3911C3.9389 18.8642 2.66284 16.7065 2.2355 14.3142C1.94669 13.0007 1.92326 11.6427 2.16665 10.3201C2.41004 8.99741 2.91527 7.73674 3.65274 6.6121C4.39021 5.48746 5.3451 4.52149 6.46113 3.77104C7.57715 3.0206 8.83189 2.50077 10.1516 2.24207C12.8524 1.71468 15.6522 2.26975 17.9475 3.78759C20.2428 5.30544 21.8497 7.66449 22.4217 10.3561" stroke="#FF9800" stroke-width="4" stroke-linecap="round" stroke-linejoin="round"/>
<path d="M55.0758 18.6681V42.4165C55.0758 43.4663 54.6587 44.473 53.9164 45.2153C53.1742 45.9576 52.1675 46.3746 51.1177 46.3746H7.7768C6.72705 46.3746 5.72036 45.9576 4.97808 45.2153C4.23579 44.473 3.81873 43.4663 3.81873 42.4165V18.6681" stroke="#FF9800" stroke-width="4" stroke-linecap="round" stroke-linejoin="round"/>
</svg>
