<svg width="59" height="60" viewBox="0 0 59 60" fill="none" xmlns="http://www.w3.org/2000/svg">
<path d="M56.9999 22.5635C56.9999 25.5124 55.8285 28.3406 53.7432 30.4258C51.658 32.511 48.8298 33.6824 45.8809 33.6824C43.172 33.6991 40.5537 32.7084 38.5344 30.9027C37.279 33.2534 35.3915 35.2064 33.085 36.5412C30.7785 37.8761 28.1448 38.5397 25.4812 38.4571C22.8176 38.3745 20.2301 37.549 18.0107 36.0738C15.7913 34.5986 14.0285 32.5324 12.9211 30.1085C11.829 30.9099 10.5029 31.3286 9.14857 31.2998C8.2099 31.2998 7.28042 31.1149 6.4132 30.7557C5.54598 30.3965 4.75803 29.87 4.09428 29.2062C3.43054 28.5425 2.904 27.7545 2.54479 26.8873C2.18557 26.02 2.00072 25.0906 2.00072 24.1519C1.98053 22.7461 2.38725 21.3672 3.16714 20.1973C3.94704 19.0275 5.06339 18.1217 6.36884 17.5996C6.03098 16.5083 5.89642 15.3642 5.97178 14.2242C5.98929 11.7182 6.77119 9.27725 8.21307 7.22752C9.65495 5.17779 11.6881 3.61696 14.0408 2.7536C16.3934 1.89023 18.9535 1.76548 21.379 2.396C23.8044 3.02653 25.9797 4.3823 27.614 6.28212C29.9221 4.60405 32.7025 3.70041 35.5562 3.70093C38.0549 3.69954 40.4949 4.45859 42.5519 5.87722C44.6089 7.29585 46.1856 9.30688 47.0723 11.643C49.7932 11.8914 52.3221 13.1507 54.16 15.1724C55.9979 17.1941 57.0112 19.8313 56.9999 22.5635Z" stroke="#FF9800" stroke-width="4" stroke-linecap="round" stroke-linejoin="round"/>
<path d="M45.8809 33.6824C45.8809 33.6824 36.1518 35.4694 36.1518 57.5088H26.0256C26.0256 57.5088 26.6213 42.2202 16.6937 34.8737" stroke="#FF9800" stroke-width="4" stroke-linecap="round" stroke-linejoin="round"/>
</svg>
