<svg width="59" height="53" viewBox="0 0 59 53" fill="none" xmlns="http://www.w3.org/2000/svg">
<path d="M7.60107 39.3298H51.211V42.2769C51.211 44.3612 50.3978 46.3602 48.9503 47.834C47.5028 49.3079 45.5395 50.1358 43.4924 50.1358H15.3197C13.2726 50.1358 11.3093 49.3079 9.86179 47.834C8.41427 46.3602 7.60107 44.3612 7.60107 42.2769V39.3298Z" stroke="#FF9800" stroke-width="4" stroke-linecap="round" stroke-linejoin="round"/>
<path d="M46.001 27.3449H51.0182C51.7945 27.3186 52.568 27.4516 53.2928 27.736C54.0176 28.0203 54.6788 28.4503 55.2369 29.0003C55.7951 29.5503 56.2387 30.209 56.5416 30.9372C56.8446 31.6655 57.0005 32.4483 57 33.2391C57 34.8545 56.3698 36.4037 55.248 37.5459C54.1262 38.6881 52.6047 39.3298 51.0182 39.3298H7.79409C7.01736 39.3302 6.24854 39.1715 5.53332 38.8631C4.81809 38.5547 4.17109 38.1029 3.63094 37.5346C3.09079 36.9662 2.66847 36.2931 2.38917 35.5551C2.10986 34.8172 1.97927 34.0295 2.00516 33.2391C1.9782 32.4577 2.10955 31.679 2.39093 30.9515C2.67231 30.2239 3.09775 29.5632 3.64077 29.0103C4.18379 28.4574 4.83273 28.0242 5.54727 27.7377C6.26181 27.4512 7.02662 27.3175 7.79409 27.3449H24.775" stroke="#FF9800" stroke-width="4" stroke-linecap="round" stroke-linejoin="round"/>
<path d="M56.9999 23.4157C56.9855 24.4521 56.5694 25.4408 55.8422 26.1663C55.5039 26.5519 55.0867 26.8573 54.6199 27.061C54.1532 27.2647 53.6482 27.3617 53.1407 27.3451H43.1065L36.5458 35.0076L29.9849 27.3451H5.67145C5.17331 27.3458 4.68022 27.2432 4.22233 27.0434C3.76445 26.8437 3.35134 26.551 3.00824 26.1832C2.66514 25.8155 2.39927 25.3805 2.22679 24.9047C2.05432 24.4288 1.97886 23.9222 2.00508 23.4157C1.97886 22.9092 2.05432 22.4025 2.22679 21.9267C2.39927 21.4509 2.66514 21.0158 3.00824 20.6481C3.35134 20.2804 3.76445 19.9877 4.22233 19.788C4.68022 19.5882 5.17331 19.4855 5.67145 19.4862H53.1407C54.1642 19.4862 55.1459 19.9002 55.8697 20.6371C56.5934 21.374 56.9999 22.3735 56.9999 23.4157Z" stroke="#FF9800" stroke-width="4" stroke-linecap="round" stroke-linejoin="round"/>
<path d="M24.196 2H34.809C39.2103 2 43.4313 3.78017 46.5434 6.94891C49.6556 10.1177 51.404 14.4154 51.404 18.8967H7.60107C7.60107 14.4154 9.34942 10.1177 12.4616 6.94891C15.5737 3.78017 19.7947 2 24.196 2Z" stroke="#FF9800" stroke-width="4" stroke-linecap="round" stroke-linejoin="round"/>
<path d="M18.6001 10.8412L20.9157 13.3953" stroke="#FF9800" stroke-width="4" stroke-linecap="round" stroke-linejoin="round"/>
<path d="M39.4402 9.85901L41.9488 12.6096" stroke="#FF9800" stroke-width="4" stroke-linecap="round" stroke-linejoin="round"/>
<path d="M27.8624 11.0379L30.5639 8.48376" stroke="#FF9800" stroke-width="4" stroke-linecap="round" stroke-linejoin="round"/>
</svg>
