<svg width="59" height="78" viewBox="0 0 59 78" fill="none" xmlns="http://www.w3.org/2000/svg">
<path d="M56.9999 2V48.9953H39.6995V19.3005C39.6995 14.7121 41.5222 10.3116 44.7666 7.06715C48.0111 3.82269 52.4116 2 56.9999 2Z" stroke="#FF9800" stroke-width="4" stroke-linecap="round" stroke-linejoin="round"/>
<path d="M46.9294 48.7371H56.9999V70.4272C56.9999 71.7283 56.483 72.9762 55.5629 73.8963C54.6428 74.8164 53.3949 75.3333 52.0938 75.3333H51.8356C50.5344 75.3333 49.2865 74.8164 48.3665 73.8963C47.4464 72.9762 46.9294 71.7283 46.9294 70.4272V48.7371Z" stroke="#FF9800" stroke-width="4" stroke-linecap="round" stroke-linejoin="round"/>
<path d="M13.878 75.3333C12.3029 75.3333 10.7923 74.7076 9.67854 73.5938C8.56477 72.48 7.93909 70.9694 7.93909 69.3943L10.5212 37.1174H17.493L20.0752 69.3943C20.0759 70.1965 19.9142 70.9904 19.5998 71.7283C19.2853 72.4662 18.8245 73.1328 18.2454 73.6878C17.6663 74.2428 16.9808 74.6747 16.2302 74.9575C15.4795 75.2403 14.6794 75.3681 13.878 75.3333Z" stroke="#FF9800" stroke-width="4" stroke-linecap="round" stroke-linejoin="round"/>
<path d="M25.4976 25.4977C25.0789 28.3143 23.6622 30.8868 21.5057 32.7464C19.3492 34.606 16.5965 35.629 13.7489 35.629C10.9013 35.629 8.14842 34.606 5.99191 32.7464C3.8354 30.8868 2.41871 28.3143 2 25.4977H25.4976Z" stroke="#FF9800" stroke-width="4" stroke-linecap="round" stroke-linejoin="round"/>
<path d="M2 4.06569V25.4976" stroke="#FF9800" stroke-width="4" stroke-linecap="round" stroke-linejoin="round"/>
<path d="M13.6197 4.0657V24.9812" stroke="#FF9800" stroke-width="4" stroke-linecap="round" stroke-linejoin="round"/>
<path d="M25.4976 4.0657V25.4977" stroke="#FF9800" stroke-width="4" stroke-linecap="round" stroke-linejoin="round"/>
</svg>
