<svg width="59" height="55" viewBox="0 0 59 55" fill="none" xmlns="http://www.w3.org/2000/svg">
<path d="M2 28.0948H57V33.3138C57 38.4778 54.9486 43.4303 51.2971 47.0818C47.6457 50.7333 42.6932 52.7846 37.5292 52.7846H21.4708C16.3068 52.7846 11.3543 50.7333 7.70286 47.0818C4.05138 43.4303 2 38.4778 2 33.3138V28.0948Z" stroke="#FF9800" stroke-width="4" stroke-linecap="round" stroke-linejoin="round"/>
<path d="M3.80664 4.60956H4.60949C8.28283 4.60956 11.8057 6.06879 14.4031 8.66624C17.0006 11.2637 18.4599 14.7866 18.4599 18.4599H17.6569C13.9836 18.4599 10.4607 17.0007 7.86326 14.4032C5.26581 11.8058 3.80664 8.2829 3.80664 4.60956Z" stroke="#FF9800" stroke-width="4" stroke-linejoin="round"/>
<path d="M24.0803 8.42338C24.4068 6.633 25.347 5.01234 26.7391 3.84006C28.1312 2.66779 29.8881 2.01712 31.708 2C33.7682 2.05089 35.73 2.89207 37.1872 4.3493C38.6445 5.80653 39.4856 7.7683 39.5365 9.82851C39.5012 10.6448 39.3664 11.4536 39.135 12.2372L41.5438 11.8358C43.604 11.8867 45.5657 12.7278 47.0229 14.185C48.4802 15.6423 49.3213 17.604 49.3722 19.6643" stroke="#FF9800" stroke-width="4" stroke-linecap="round" stroke-linejoin="round"/>
<path d="M38.7335 20.2664C36.6041 20.2664 34.5618 19.4204 33.056 17.9147C31.5503 16.4089 30.7043 14.3667 30.7043 12.2372" stroke="#FF9800" stroke-width="4" stroke-linecap="round" stroke-linejoin="round"/>
</svg>
