<svg width="59" height="58" viewBox="0 0 59 58" fill="none" xmlns="http://www.w3.org/2000/svg">
<path d="M56.9918 31.2208C56.2138 38.1188 52.8649 44.4703 47.6126 49.0091C42.3602 53.5479 35.5902 55.9406 28.6522 55.7102C21.7143 55.4798 15.1181 52.6432 10.1784 47.7659C5.23877 42.8887 2.31856 36.329 2 29.3945C2.03443 27.9663 2.17008 26.5422 2.40587 25.1332C2.5331 27.1675 3.35255 29.097 4.72806 30.6012C6.10357 32.1053 7.95229 33.0936 9.96713 33.4018C11.982 33.7099 14.0416 33.3193 15.8038 32.2951C17.566 31.2708 18.9248 29.6744 19.6542 27.7711C19.8798 27.3282 20.0176 26.8459 20.06 26.3507C20.6884 24.1084 22.084 22.1577 24.0033 20.8388C25.9226 19.52 28.2439 18.9167 30.5624 19.1341C32.881 19.3514 35.0497 20.3757 36.6905 22.0283C38.3312 23.6809 39.3399 25.8569 39.5405 28.177V30.0033C39.7935 32.1729 40.851 34.1687 42.5042 35.5964C44.1573 37.0241 46.2858 37.7798 48.4691 37.7143C50.4095 37.7337 52.301 37.1057 53.8445 35.9297C55.388 34.7537 56.4955 33.0968 56.9918 31.2208Z" stroke="#FF9800" stroke-width="4" stroke-linecap="round" stroke-linejoin="round"/>
<path d="M39.5405 29.3945V30.0033C39.4357 32.5694 38.3419 34.9954 36.4885 36.7732C34.635 38.5511 32.1656 39.5428 29.5973 39.5406C26.9064 39.5406 24.3257 38.4716 22.4229 36.5689C20.5202 34.6661 19.4512 32.0854 19.4512 29.3945C19.4512 28.7858 19.6542 28.3799 19.6542 27.7711C19.8797 27.3282 20.0175 26.8459 20.06 26.3507C20.6884 24.1084 22.0839 22.1577 24.0032 20.8388C25.9225 19.52 28.2438 18.9167 30.5624 19.1341C32.881 19.3514 35.0497 20.3757 36.6904 22.0283C38.3312 23.6809 39.3398 25.8569 39.5405 28.177V29.3945Z" stroke="#FF9800" stroke-width="4" stroke-linecap="round" stroke-linejoin="round"/>
<path d="M56.9918 29.3945V31.2208C56.4955 33.0967 55.3881 34.7537 53.8445 35.9297C52.301 37.1057 50.4095 37.7336 48.4692 37.7142C46.2858 37.7797 44.1573 37.024 42.5042 35.5963C40.8511 34.1686 39.7936 32.1728 39.5405 30.0032V28.1769C39.3399 25.8569 38.3312 23.6808 36.6905 22.0282C35.0498 20.3756 32.881 19.3514 30.5625 19.134C28.2439 18.9166 25.9226 19.52 24.0033 20.8388C22.084 22.1576 20.6884 24.1083 20.06 26.3506C19.8571 26.7565 19.8572 27.3652 19.6542 27.7711C18.9248 29.6743 17.566 31.2707 15.8038 32.295C14.0416 33.3193 11.982 33.7098 9.96715 33.4017C7.9523 33.0935 6.10358 32.1053 4.72808 30.6011C3.35257 29.0969 2.53312 27.1674 2.40588 25.1331C2.62515 23.6205 2.96442 22.1276 3.42049 20.6688C5.31232 15.2287 8.84705 10.5106 13.5363 7.16628C18.2256 3.822 23.8378 2.0168 29.5974 2.00003C36.2373 1.98993 42.6549 4.39177 47.6566 8.75891C52.6582 13.1261 55.9036 19.1612 56.7889 25.7418C56.9573 26.9517 57.0251 28.1734 56.9918 29.3945Z" stroke="#FF9800" stroke-width="4" stroke-linecap="round" stroke-linejoin="round"/>
<path d="M11.9432 24.7273L14.3783 21.8864" stroke="#FF9800" stroke-width="4" stroke-linecap="round" stroke-linejoin="round"/>
<path d="M21.6834 16.0017L18.8425 13.7695" stroke="#FF9800" stroke-width="4" stroke-linecap="round" stroke-linejoin="round"/>
<path d="M44.0048 16.6104L41.1639 14.3782" stroke="#FF9800" stroke-width="4" stroke-linecap="round" stroke-linejoin="round"/>
<path d="M29.8003 12.349L32.0324 9.50812" stroke="#FF9800" stroke-width="4" stroke-linecap="round" stroke-linejoin="round"/>
<path d="M47.2515 26.7565L49.6866 23.9156" stroke="#FF9800" stroke-width="4" stroke-linecap="round" stroke-linejoin="round"/>
</svg>
