<svg width="59" height="74" viewBox="0 0 59 74" fill="none" xmlns="http://www.w3.org/2000/svg">
<path d="M29.4999 62.5504C34.7947 62.5504 39.0871 58.2581 39.0871 52.9633C39.0871 47.6684 34.7947 43.3761 29.4999 43.3761C24.2051 43.3761 19.9128 47.6684 19.9128 52.9633C19.9128 58.2581 24.2051 62.5504 29.4999 62.5504Z" stroke="#FF9800" stroke-width="4" stroke-linecap="round" stroke-linejoin="round"/>
<path d="M57 26.7248L51.9541 71.6329H7.04587L2 26.7248H13.3532C14.7297 28.7733 16.5381 30.4956 18.6514 31.7706L19.9128 32.5275C22.8491 34.1524 26.1442 35.0195 29.5 35.0504H29.7523C33.3288 34.9773 36.8178 33.9306 39.844 32.0229C42.119 30.6705 44.0936 28.8676 45.6468 26.7248H57Z" stroke="#FF9800" stroke-width="4" stroke-linecap="round" stroke-linejoin="round"/>
<path d="M9.82104 26.7248V6.79356H19.9128V31.7706" stroke="#FF9800" stroke-width="4" stroke-linecap="round" stroke-linejoin="round"/>
<path d="M19.9128 32.5275V2H29.7522V35.0504" stroke="#FF9800" stroke-width="4" stroke-linecap="round" stroke-linejoin="round"/>
<path d="M29.7523 35.0504V13.6055H39.844V32.0229" stroke="#FF9800" stroke-width="4" stroke-linecap="round" stroke-linejoin="round"/>
<path d="M39.844 32.0229V5.02751H49.9357V26.7248" stroke="#FF9800" stroke-width="4" stroke-linecap="round" stroke-linejoin="round"/>
</svg>
