<svg width="59" height="64" viewBox="0 0 59 64" fill="none" xmlns="http://www.w3.org/2000/svg">
<path d="M3.33057 35.0444C3.33057 42.1614 6.15778 48.987 11.1903 54.0194C16.2227 59.0519 23.0483 61.8791 30.1653 61.8791C37.2823 61.8791 44.1077 59.0519 49.1402 54.0194C54.1727 48.987 56.9999 42.1614 56.9999 35.0444H3.33057Z" stroke="#FF9800" stroke-width="4" stroke-linecap="round" stroke-linejoin="round"/>
<path d="M8.87494 25.9517C9.26792 23.084 10.6862 20.4556 12.8675 18.5529C15.0487 16.6501 17.8453 15.6018 20.7399 15.6018C23.6344 15.6018 26.431 16.6501 28.6122 18.5529C30.7935 20.4556 32.2118 23.084 32.6048 25.9517" stroke="#FF9800" stroke-width="4" stroke-linecap="round" stroke-linejoin="round"/>
<path d="M24.8427 14.1975C26.4528 12.3762 28.4332 10.9196 30.6515 9.92526C32.8697 8.93086 35.2747 8.42155 37.7056 8.43135C39.9961 8.43116 42.2637 8.88586 44.3771 9.76902C46.4904 10.6522 48.4073 11.9462 50.0165 13.5761C51.6257 15.206 52.8953 17.1392 53.7515 19.2636C54.6076 21.388 55.0334 23.6613 55.004 25.9515" stroke="#FF9800" stroke-width="4" stroke-linecap="round" stroke-linejoin="round"/>
<path d="M30.6089 19.5201C32.3392 18.0484 34.5476 17.2597 36.8186 17.3024C39.3687 17.3017 41.8176 18.2993 43.6414 20.0816C45.4651 21.8639 46.5187 24.2893 46.5767 26.8387" stroke="#FF9800" stroke-width="4" stroke-linecap="round" stroke-linejoin="round"/>
<path d="M17.0806 14.8629L3.55243 2" stroke="#FF9800" stroke-width="4" stroke-linecap="round" stroke-linejoin="round"/>
<path d="M9.7621 21.5161L2 14.1976" stroke="#FF9800" stroke-width="4" stroke-linecap="round" stroke-linejoin="round"/>
</svg>
