<svg width="59" height="60" viewBox="0 0 59 60" fill="none" xmlns="http://www.w3.org/2000/svg">
<path d="M22.7113 13.7364L29.6151 2L57 49.6359C38.59 59.9916 20.41 59.9916 2 49.6359L15.3473 26.6234" stroke="#FF9800" stroke-width="4" stroke-linejoin="round"/>
<path d="M5.91217 41.5815C12.9911 45.9867 21.1623 48.3216 29.5 48.3216C37.8378 48.3216 46.0089 45.9867 53.0879 41.5815" stroke="#FF9800" stroke-width="4" stroke-linejoin="round"/>
<path d="M33.9874 39.9706C36.4022 39.9706 38.3598 38.0131 38.3598 35.5983C38.3598 33.1835 36.4022 31.2258 33.9874 31.2258C31.5726 31.2258 29.6151 33.1835 29.6151 35.5983C29.6151 38.0131 31.5726 39.9706 33.9874 39.9706Z" stroke="#FF9800" stroke-width="4" stroke-linejoin="round"/>
<path d="M27.5439 20.6401C27.5439 22.6542 26.7438 24.5857 25.3196 26.0099C23.8954 27.4341 21.9638 28.2342 19.9497 28.2342C18.2913 28.1574 16.6915 27.5975 15.3472 26.6233L22.7112 13.7363C24.0916 14.306 25.2801 15.2587 26.1364 16.482C26.9927 17.7053 27.4811 19.1482 27.5439 20.6401Z" stroke="#FF9800" stroke-width="4" stroke-linejoin="round"/>
</svg>
