<svg width="59" height="59" viewBox="0 0 59 59" fill="none" xmlns="http://www.w3.org/2000/svg">
<path d="M32.0749 2L13.1235 57.0001" stroke="#FF9800" stroke-width="4" stroke-linecap="round" stroke-linejoin="round"/>
<path d="M2 48.3486L57 29.3973" stroke="#FF9800" stroke-width="4" stroke-linecap="round" stroke-linejoin="round"/>
<path d="M40.5207 33.5167C48.0293 33.5167 54.1163 27.4298 54.1163 19.9212C54.1163 12.4126 48.0293 6.32574 40.5207 6.32574C33.0121 6.32574 26.9252 12.4126 26.9252 19.9212C26.9252 27.4298 33.0121 33.5167 40.5207 33.5167Z" stroke="#FF9800" stroke-width="4" stroke-linecap="round" stroke-linejoin="round"/>
<path d="M40.5205 24.865C43.2509 24.865 45.4644 22.6515 45.4644 19.9211C45.4644 17.1907 43.2509 14.9772 40.5205 14.9772C37.7901 14.9772 35.5767 17.1907 35.5767 19.9211C35.5767 22.6515 37.7901 24.865 40.5205 24.865Z" stroke="#FF9800" stroke-width="4" stroke-linecap="round" stroke-linejoin="round"/>
</svg>
