<svg width="59" height="56" viewBox="0 0 59 56" fill="none" xmlns="http://www.w3.org/2000/svg">
<path d="M16.2001 21.2824C15.3129 19.3337 14.8363 17.2233 14.8 15.0824C15.2211 11.4791 16.9508 8.15602 19.6608 5.74423C22.3708 3.33244 25.8722 2 29.5 2C33.1278 2 36.6292 3.33244 39.3392 5.74423C42.0492 8.15602 43.779 11.4791 44.2001 15.0824C44.1422 17.2206 43.6665 19.3268 42.8 21.2824" stroke="#FF9800" stroke-width="4" stroke-linecap="round" stroke-linejoin="round"/>
<path d="M14 38.2824C10.6279 37.6722 7.57782 35.8951 5.38395 33.2625C3.19008 30.6299 1.99221 27.3094 2.00004 23.8824C2.00004 15.8824 7.40006 10.8824 15.4001 10.8824" stroke="#FF9800" stroke-width="4" stroke-linecap="round" stroke-linejoin="round"/>
<path d="M43.4 10.8824C51.6 10.8824 57 15.8824 57 23.8824C57.0078 27.3094 55.81 30.6299 53.6161 33.2625C51.4222 35.8951 48.3722 37.6722 45 38.2824" stroke="#FF9800" stroke-width="4" stroke-linecap="round" stroke-linejoin="round"/>
<path d="M14 38.2824V53.4824H44.8V38.2824" stroke="#FF9800" stroke-width="4" stroke-linecap="round" stroke-linejoin="round"/>
<path d="M14 45.8824H44.8" stroke="#FF9800" stroke-width="4" stroke-linecap="round" stroke-linejoin="round"/>
<path d="M29.4 45.8824V37.8824" stroke="#FF9800" stroke-width="4" stroke-linecap="round" stroke-linejoin="round"/>
</svg>
